<svg xmlns="http://www.w3.org/2000/svg" fill-rule="evenodd" stroke-linecap="round" stroke-linejoin="round" stroke-miterlimit="1.5" clip-rule="evenodd" viewBox="0 0 200 72">
  <path id="Circuit" fill="none" d="M0 0h200v72H0z"/>
  <g id="Circuit1">
    <g fill="none" stroke="#000">
      <path d="M6 16h4v16H6zM8 32v8h48"/>
      <path stroke-linejoin="miter" stroke-miterlimit="10" d="M29.75 12.38L32 9l2.25 3.38"/>
      <path d="M56 24H32V9"/>
      <path d="M56 8H24l-4 4-4-4"/>
    </g>
    <g fill="none" stroke="#000">
      <path d="M48 58h16M51 61h10M54 64h4M56 56v2"/>
    </g>
    <path fill="none" stroke="#000" d="M56 24v32M56 48h40"/>
    <g fill="none" stroke="#000">
      <path d="M128 8v16M140 28a12 12 0 11-24.01-.01A12 12 0 01140 28z"/>
      <path stroke-width="2" d="M136 24h-16"/>
      <path stroke-linejoin="miter" stroke-miterlimit="10" d="M120.98 31.2L117 32l.8-3.98"/>
      <path d="M125 24l-8 8M131 24l8 8M112 32h5"/>
    </g>
    <path fill="none" stroke="#000" d="M64 4h24v8H64z"/>
    <path fill-rule="nonzero" d="M67 10.84v-.64h1.54V6.16l.01-.3v-.13l.01-.05h-.02l-.1.09a2.92 2.92 0 01-.2.15l-1.14.77v-.73l1.24-.88h.92v5.12h1.3v.64H67zM71.72 6.72c0-.26.04-.5.12-.71a1.53 1.53 0 01.9-.89c.22-.08.47-.12.74-.12s.52.04.73.12c.22.08.4.2.55.34.16.15.27.34.36.55.08.21.12.45.12.71V9.2c0 .26-.04.5-.12.7a1.53 1.53 0 01-.91.9c-.22.08-.46.12-.73.12a2.1 2.1 0 01-.73-.12c-.22-.08-.4-.2-.55-.34a1.53 1.53 0 01-.36-.55 1.95 1.95 0 01-.12-.71V6.72zm.72 2.48c0 .33.1.6.28.79.19.2.44.29.76.29a1 1 0 00.76-.3c.19-.19.28-.45.28-.78V6.72c0-.33-.1-.6-.28-.79a1 1 0 00-.76-.29 1 1 0 00-.76.3c-.19.19-.28.45-.28.78V9.2zm.64-1.84c0-.13.04-.24.1-.32a.37.37 0 01.3-.12c.12 0 .22.04.3.12.06.08.1.19.1.32v1.28c0 .13-.04.24-.1.32a.37.37 0 01-.3.12.37.37 0 01-.3-.12.46.46 0 01-.1-.32V7.36zM76.52 6.72c0-.26.04-.5.12-.71a1.53 1.53 0 01.9-.89c.22-.08.47-.12.74-.12s.52.04.73.12c.22.08.4.2.55.34.16.15.27.34.36.55.08.21.12.45.12.71V9.2c0 .26-.04.5-.12.7a1.53 1.53 0 01-.91.9c-.22.08-.46.12-.73.12a2.1 2.1 0 01-.73-.12c-.22-.08-.4-.2-.55-.34a1.53 1.53 0 01-.36-.55 1.95 1.95 0 01-.12-.71V6.72zm.72 2.48c0 .33.1.6.28.79.19.2.44.29.76.29a1 1 0 00.76-.3c.19-.19.28-.45.28-.78V6.72c0-.33-.1-.6-.28-.79a1 1 0 00-.76-.29 1 1 0 00-.76.3c-.19.19-.28.45-.28.78V9.2zm.64-1.84c0-.13.04-.24.1-.32a.37.37 0 01.3-.12c.12 0 .22.04.3.12.06.08.1.19.1.32v1.28c0 .13-.04.24-.1.32a.37.37 0 01-.3.12.37.37 0 01-.3-.12.46.46 0 01-.1-.32V7.36zM81.42 5.08h.72v3.2h.87l1.34-1.84h.83l-1.56 2.13 1.58 2.27h-.84l-1.34-1.92h-.88v1.92h-.72V5.08z"/>
    <path fill="none" stroke="#000" d="M96 8h-8M64 8h-8M100 40V16h-8v24h8z"/>
    <path fill-rule="nonzero" d="M93.08 23.03c0-.25.04-.48.11-.69a1.63 1.63 0 011.45-1.12v.72c-.28.05-.5.17-.67.36-.17.2-.25.44-.25.73 0 .34.1.6.3.81.21.2.48.3.82.3.34 0 .6-.1.81-.3.2-.22.31-.5.31-.84v-.67h.76l1.16 1.14a2.21 2.21 0 01.28.34l.14.18h.01l-.01-.18a4.72 4.72 0 01-.02-.4V21.4h.64v3.2h-.8l-1.29-1.35a1.53 1.53 0 01-.16-.19.87.87 0 01-.07-.08c0 .3-.04.55-.12.78a1.57 1.57 0 01-.9.97c-.23.1-.47.14-.74.14s-.52-.04-.73-.13a1.52 1.52 0 01-.9-.94 2.21 2.21 0 01-.13-.77zM93.08 27.83c0-.25.04-.48.11-.69a1.63 1.63 0 011.45-1.12v.72c-.28.05-.5.17-.67.36-.17.2-.25.44-.25.73 0 .34.1.6.3.81.21.2.48.3.82.3.34 0 .6-.1.81-.3.2-.22.31-.5.31-.84v-.67h.76l1.16 1.14a2.21 2.21 0 01.28.34l.14.18h.01l-.01-.18a4.72 4.72 0 01-.02-.4V26.2h.64v3.2h-.8l-1.29-1.35a1.53 1.53 0 01-.16-.19.87.87 0 01-.07-.08c0 .3-.04.55-.12.78a1.57 1.57 0 01-.9.97c-.23.1-.47.14-.74.14s-.52-.04-.73-.13a1.52 1.52 0 01-.9-.94 2.21 2.21 0 01-.13-.77zM98.92 31.02v.72h-3.2v.87l1.84 1.34v.83l-2.13-1.56-2.27 1.58v-.84l1.92-1.34v-.88h-1.92v-.72h5.76z"/>
    <path fill="none" stroke="#000" d="M96 16V8M96 40v8M96 8h32M139 32h5M112 32v16H96"/>
    <path fill-rule="nonzero" d="M149.52 27.97c.26 0 .5.04.71.12a1.53 1.53 0 01.9.87c.09.2.13.44.13.69 0 .25-.04.48-.13.68a1.54 1.54 0 01-.9.88c-.22.08-.45.12-.7.12h-1.23v2.4h-.72v-5.76h1.94zm-1.22 2.72h1.22c.3 0 .54-.1.72-.29.18-.19.27-.44.27-.75 0-.32-.09-.57-.27-.76a.95.95 0 00-.72-.28h-1.22v2.08zM153.7 33.1v-4.5h-1.28v-.63h3.28v.63h-1.27v4.5h1.27v.63h-3.28v-.64h1.27zM158.05 27.97l1.53 3.86.12.33a5.52 5.52 0 01.2.77h.06v-.09a9.67 9.67 0 00-.06-.56V27.97h.68v5.76h-.91l-1.5-3.88-.14-.37a5.5 5.5 0 01-.2-.72h-.06a8.15 8.15 0 01.06 1.03v3.94h-.7v-5.76h.92zM161.74 33.93h3.84v.6h-3.84zM168.5 33.8a2.1 2.1 0 01-.72-.11 1.54 1.54 0 01-.9-.89 1.97 1.97 0 01-.13-.71V29.6c0-.26.04-.5.12-.71a1.52 1.52 0 01.9-.9c.22-.07.46-.11.74-.11.5 0 .9.13 1.2.4.32.28.5.67.56 1.16h-.72a1.01 1.01 0 00-.33-.68 1.04 1.04 0 00-.71-.24c-.32 0-.58.1-.76.28-.19.2-.28.46-.28.8v2.48c0 .33.09.6.27.79a1 1 0 00.77.29c.3 0 .53-.09.71-.25.19-.16.3-.38.33-.67h.72c-.06.49-.24.87-.55 1.14-.3.28-.71.42-1.21.42zM172.42 27.97v5.1h2.72v.66h-3.44v-5.76h.72zM178.06 33.8a2.1 2.1 0 01-.73-.11 1.54 1.54 0 01-.9-.89 1.97 1.97 0 01-.13-.71V29.6c0-.26.04-.5.12-.71a1.52 1.52 0 01.9-.9c.22-.07.47-.11.74-.11s.51.04.73.12a1.53 1.53 0 01.9.89c.09.2.13.45.13.7v2.49c0 .26-.04.5-.13.7a1.53 1.53 0 01-.9.9c-.22.08-.46.12-.73.12zm-1.04-1.71c0 .33.1.59.28.78.19.2.44.3.76.3a1 1 0 00.76-.3c.19-.19.28-.45.28-.78V29.6c0-.33-.1-.6-.28-.8a1 1 0 00-.76-.28 1 1 0 00-.76.29c-.19.2-.28.46-.28.79v2.48zM182.9 33.8a2.1 2.1 0 01-.72-.11 1.54 1.54 0 01-.9-.89 1.97 1.97 0 01-.13-.71V29.6c0-.26.04-.5.12-.71a1.52 1.52 0 01.9-.9c.22-.07.47-.11.74-.11.5 0 .9.13 1.2.4.32.28.5.67.56 1.16h-.72a1.01 1.01 0 00-.33-.68 1.04 1.04 0 00-.71-.24c-.32 0-.58.1-.76.28-.19.2-.28.46-.28.8v2.48c0 .33.09.6.27.79a1 1 0 00.77.29c.3 0 .53-.09.71-.25.19-.16.3-.38.33-.67h.72c-.06.49-.24.87-.55 1.14-.3.28-.71.42-1.21.42zM185.98 27.97h.72v2.44h.92l1.31-2.44h.85l-1.53 2.73 1.6 3.03H189l-1.38-2.68h-.92v2.68h-.72v-5.76z"/>
    <circle cx="96" cy="48" r="1" stroke="#000"/>
    <circle cx="96" cy="8" r="1" stroke="#000"/>
    <circle cx="56" cy="48" r="1" stroke="#000"/>
    <circle cx="56" cy="40" r="1" stroke="#000"/>
  </g>
</svg>
